<svg id="Layer_1" data-name="Layer 1" xmlns="http://www.w3.org/2000/svg" viewBox="0 0 340.4 36.24"><defs><style>.cls-1{fill:#fff;}.cls-2{fill:#9d9795;}.cls-3{fill:#cfb991;}</style></defs><path class="cls-1" d="M207.34,12.61h-2.42V15h2.7l-.14,1h-3.71V8.56h3.69v1h-2.54v2h2.42Z"/><path class="cls-1" d="M208.41,16V8.19h1.14V16Z"/><path class="cls-1" d="M210.77,12.05c0-1.07,0-1.44,0-1.69h1.09a5.53,5.53,0,0,1,0,.63,1.32,1.32,0,0,1,1.26-.73,1.11,1.11,0,0,1,1.15.79,1.48,1.48,0,0,1,1.39-.79c.77,0,1.41.38,1.41,1.68V16H216V12.12c0-.5-.15-.88-.67-.88s-.79.48-.79,1.2V16h-1.13V12.14c0-.58-.19-.89-.66-.89s-.81.45-.81,1.24V16h-1.13Z"/><path class="cls-1" d="M222.17,13.13c0,2-.73,3-2.08,3s-2.06-.92-2.06-3,.83-2.89,2.11-2.89S222.17,11.24,222.17,13.13Zm-3,0c0,1.32.26,2,.92,2s.9-.69.9-2-.26-1.93-.9-1.93S219.19,11.83,219.19,13.15Z"/><path class="cls-1" d="M223.11,12.27c0-.91,0-1.5,0-1.91h1.09c0,.11,0,.36,0,1a1.47,1.47,0,0,1,1.49-1.05v1.27c-.94,0-1.45.38-1.45,1.44v3h-1.15Z"/><path class="cls-1" d="M227.31,13.46c0,.85.13,1.71.91,1.71a.84.84,0,0,0,.84-.84h1.1a1.87,1.87,0,0,1-2,1.79c-1.77,0-2-1.54-2-3,0-1.79.66-2.9,2.06-2.9,1.59,0,2,1.23,2,2.68,0,.17,0,.41,0,.52Zm1.76-.83c0-.7-.11-1.42-.84-1.42s-.89,1-.91,1.42Z"/><path class="cls-1" d="M233.28,8.56H237v1h-2.55v2.11h2.4v1h-2.4V16h-1.14Z"/><path class="cls-1" d="M241.13,14.86c0,.31,0,.92,0,1.15h-1a4,4,0,0,1-.06-.56,1.32,1.32,0,0,1-1.29.66,1.49,1.49,0,0,1-1.5-1.66c0-1.12.77-1.85,2.22-1.85a2.54,2.54,0,0,1,.51,0V12c0-.36-.07-.8-.69-.8s-.71.43-.74.8h-1.08a1.62,1.62,0,0,1,1.86-1.69c1.17,0,1.76.55,1.76,1.62ZM240,13.46a3.11,3.11,0,0,0-.47,0c-.83,0-1.15.4-1.15.91a.73.73,0,0,0,.73.83c.71,0,.89-.53.89-1.49Z"/><path class="cls-1" d="M242.37,12.05c0-1.07,0-1.44,0-1.69h1.09a5.53,5.53,0,0,1,0,.63,1.33,1.33,0,0,1,1.26-.73,1.1,1.1,0,0,1,1.15.79,1.48,1.48,0,0,1,1.39-.79c.77,0,1.41.38,1.41,1.68V16h-1.13V12.12c0-.5-.15-.88-.67-.88s-.79.48-.79,1.2V16H245V12.14c0-.58-.19-.89-.66-.89s-.8.45-.8,1.24V16h-1.14Z"/><path class="cls-1" d="M249.9,10.36H251V16H249.9Zm0-.91V8.19h1.14V9.45Z"/><path class="cls-1" d="M252.26,16V8.19h1.15V16Z"/><path class="cls-1" d="M255.32,10.36c.48,2,.9,3.6,1,4.26h0c.13-.76.55-2.51,1-4.26h1.15l-1.64,5.92c-.47,1.73-1,1.87-1.82,1.87a1.91,1.91,0,0,1-.48,0v-1l.4,0c.53,0,.69-.3.87-1.06l-1.68-5.74Z"/><path class="cls-1" d="M262,14c.07.67.36,1.24,1.08,1.24s1-.42,1-1.08-.3-1-1.27-1.52C261.53,12,261,11.5,261,10.4a2,2,0,0,1,4.06.08H264c0-.4-.15-1.11-.91-1.11a.82.82,0,0,0-.86.93c0,.6.27.88,1.17,1.3,1.32.62,1.88,1.22,1.88,2.43A2,2,0,0,1,263,16.14a2,2,0,0,1-2.2-2.17Z"/><path class="cls-1" d="M269.87,14.17A1.83,1.83,0,0,1,268,16.11c-1.58,0-2-1.3-2-3s.5-2.88,2-2.88a1.77,1.77,0,0,1,1.86,1.88h-1.15c0-.22-.06-.93-.72-.93s-.88.72-.88,1.94.23,2,.86,2,.75-.69.78-1Z"/><path class="cls-1" d="M271.86,8.19V11a1.35,1.35,0,0,1,1.3-.69c.9,0,1.42.57,1.42,1.75v4h-1.14V12.24c0-.6-.14-1-.74-1s-.84.51-.84,1.34V16h-1.13V8.19Z"/><path class="cls-1" d="M279.65,13.13c0,2-.72,3-2.08,3s-2.06-.92-2.06-3,.83-2.89,2.12-2.89S279.65,11.24,279.65,13.13Zm-3,0c0,1.32.26,2,.92,2s.91-.69.91-2-.27-1.93-.91-1.93S276.67,11.83,276.67,13.15Z"/><path class="cls-1" d="M284.5,13.13c0,2-.72,3-2.08,3s-2.06-.92-2.06-3,.83-2.89,2.12-2.89S284.5,11.24,284.5,13.13Zm-3,0c0,1.32.26,2,.93,2s.9-.69.9-2-.27-1.93-.9-1.93S281.52,11.83,281.52,13.15Z"/><path class="cls-1" d="M285.45,16V8.19h1.14V16Z"/><path class="cls-1" d="M293.74,13.13c0,2-.72,3-2.08,3s-2.05-.92-2.05-3,.82-2.89,2.11-2.89S293.74,11.24,293.74,13.13Zm-3,0c0,1.32.27,2,.93,2s.9-.69.9-2-.27-1.93-.9-1.93S290.76,11.83,290.76,13.15Z"/><path class="cls-1" d="M294.84,16v-4.7h-.68v-1h.68V9.73c0-.91.4-1.6,1.49-1.6a2.34,2.34,0,0,1,.5,0v1a1.69,1.69,0,0,0-.33,0c-.39,0-.51.23-.51.68v.56h.83v1H296V16Z"/><path class="cls-1" d="M303,12.61h-2.42V15h2.7l-.14,1h-3.71V8.56h3.69v1h-2.54v2H303Z"/><path class="cls-1" d="M304.09,16V8.19h1.15V16Z"/><path class="cls-1" d="M307.33,13.46c0,.85.12,1.71.9,1.71a.86.86,0,0,0,.85-.84h1.1a1.89,1.89,0,0,1-2,1.79c-1.77,0-2-1.54-2-3,0-1.79.66-2.9,2.06-2.9,1.59,0,2,1.23,2,2.68,0,.17,0,.41,0,.52Zm1.76-.83c0-.7-.11-1.42-.85-1.42s-.89,1-.9,1.42Z"/><path class="cls-1" d="M314.87,14.17A1.83,1.83,0,0,1,313,16.11c-1.58,0-2-1.3-2-3s.5-2.88,2-2.88a1.76,1.76,0,0,1,1.86,1.88h-1.15c0-.22-.06-.93-.72-.93s-.88.72-.88,1.94.23,2,.86,2,.75-.69.78-1Z"/><path class="cls-1" d="M315.32,10.36h.76V8.92h1.13v1.44h.92v1h-.92v3.3c0,.35.07.55.49.55a1.2,1.2,0,0,0,.34,0V16a2,2,0,0,1-.75.11c-.82,0-1.21-.31-1.21-1.29V11.31h-.76Z"/><path class="cls-1" d="M318.84,12.27c0-.91,0-1.5,0-1.91h1.09c0,.11,0,.36,0,1a1.47,1.47,0,0,1,1.49-1.05v1.27c-.94,0-1.45.38-1.45,1.44v3h-1.15Z"/><path class="cls-1" d="M322.16,10.36h1.15V16h-1.15Zm0-.91V8.19h1.14V9.45Z"/><path class="cls-1" d="M328.17,14.17a1.83,1.83,0,0,1-1.92,1.94c-1.58,0-2-1.3-2-3s.5-2.88,2-2.88a1.77,1.77,0,0,1,1.86,1.88H327c0-.22-.06-.93-.72-.93s-.88.72-.88,1.94.23,2,.86,2,.75-.69.78-1Z"/><path class="cls-1" d="M332.64,14.86c0,.31,0,.92,0,1.15h-1a2.91,2.91,0,0,1-.06-.56,1.33,1.33,0,0,1-1.3.66,1.48,1.48,0,0,1-1.49-1.66c0-1.12.77-1.85,2.22-1.85a2.59,2.59,0,0,1,.51,0V12c0-.36-.07-.8-.7-.8s-.7.43-.73.8H329a1.61,1.61,0,0,1,1.86-1.69c1.16,0,1.76.55,1.76,1.62Zm-1.09-1.4a3.33,3.33,0,0,0-.48,0c-.82,0-1.14.4-1.14.91a.73.73,0,0,0,.73.83c.71,0,.89-.53.89-1.49Z"/><path class="cls-1" d="M333.87,16V8.19H335V16Z"/><path class="cls-1" d="M207.26,26.86c0,.31,0,.92,0,1.15h-1a4.15,4.15,0,0,1-.05-.56,1.34,1.34,0,0,1-1.3.66,1.49,1.49,0,0,1-1.5-1.66c0-1.12.77-1.85,2.22-1.85a2.54,2.54,0,0,1,.51,0V24c0-.36-.07-.8-.69-.8s-.71.43-.74.8h-1.08a1.62,1.62,0,0,1,1.86-1.69c1.17,0,1.76.55,1.76,1.62Zm-1.09-1.4a3.11,3.11,0,0,0-.47,0c-.83,0-1.15.4-1.15.91a.73.73,0,0,0,.73.83c.72,0,.89-.53.89-1.49Z"/><path class="cls-1" d="M208.49,24.12c0-1.17,0-1.48,0-1.76h1.1a5.14,5.14,0,0,1,0,.64,1.32,1.32,0,0,1,1.29-.74c.88,0,1.45.54,1.45,1.72v4h-1.14V24.23c0-.61-.15-1-.72-1s-.85.35-.85,1.32V28h-1.15Z"/><path class="cls-1" d="M217.37,20.19v6.29c0,.63,0,1.2,0,1.53h-1.1c0-.14,0-.46,0-.66a1.2,1.2,0,0,1-1.29.76c-1.18,0-1.66-1-1.66-3,0-1.75.59-2.87,1.87-2.87.65,0,.94.25,1.06.5V20.19Zm-2,6.94c.75,0,.93-.59.93-2s-.15-1.87-.86-1.87-1,.47-1,1.91S214.74,27.13,215.33,27.13Z"/><path class="cls-1" d="M224.92,25.88a2.19,2.19,0,0,1-2.17,2.26c-2.08,0-2.29-1.95-2.29-3.88,0-2.33.66-3.82,2.37-3.82a2.06,2.06,0,0,1,2.08,2.25h-1.16c0-.25,0-1.25-.94-1.25s-1.15,1.23-1.15,2.84.15,2.88,1.11,2.88,1-1,1-1.28Z"/><path class="cls-1" d="M229.73,25.13c0,2-.72,3-2.08,3s-2.05-.92-2.05-3,.82-2.89,2.11-2.89S229.73,23.24,229.73,25.13Zm-3,0c0,1.32.27,2,.93,2s.9-.69.9-2-.27-1.93-.9-1.93S226.75,23.83,226.75,25.15Z"/><path class="cls-1" d="M230.69,24.05c0-1.07,0-1.44,0-1.69h1.09a5.53,5.53,0,0,1,0,.63,1.32,1.32,0,0,1,1.26-.73,1.11,1.11,0,0,1,1.15.79,1.48,1.48,0,0,1,1.39-.79c.77,0,1.41.38,1.41,1.68V28h-1.13V24.12c0-.5-.15-.88-.67-.88s-.79.48-.79,1.2V28h-1.13V24.14c0-.58-.19-.89-.66-.89s-.81.45-.81,1.24V28h-1.13Z"/><path class="cls-1" d="M238.21,30.07V24c0-.77,0-1.29,0-1.64h1.1a4,4,0,0,1,0,.67,1.26,1.26,0,0,1,1.29-.77c1.06,0,1.65.92,1.65,2.84,0,2.14-.72,3-1.81,3a1.13,1.13,0,0,1-1.11-.59v2.54Zm2-6.83c-.73,0-.91.69-.91,1.88s.09,2,.89,2c.62,0,.93-.7.93-2S240.83,23.24,240.22,23.24Z"/><path class="cls-1" d="M247.06,26.39c0,.79,0,1.34,0,1.62H246a5.41,5.41,0,0,1,0-.66,1.26,1.26,0,0,1-1.29.76c-.75,0-1.41-.35-1.41-1.69V22.36h1.14v3.79c0,.62.15,1,.67,1s.87-.3.87-1.32V22.36h1.15Z"/><path class="cls-1" d="M247.76,22.36h.76V20.92h1.13v1.44h.92v.95h-.92v3.3c0,.35.07.55.49.55a1.2,1.2,0,0,0,.34,0V28a2,2,0,0,1-.75.11c-.82,0-1.21-.31-1.21-1.29V23.31h-.76Z"/><path class="cls-1" d="M252.16,25.46c0,.85.12,1.71.9,1.71a.84.84,0,0,0,.85-.84H255a1.87,1.87,0,0,1-2,1.79c-1.77,0-2-1.54-2-3,0-1.79.66-2.9,2.06-2.9,1.59,0,2,1.23,2,2.68,0,.17,0,.41,0,.52Zm1.76-.83c0-.7-.11-1.42-.84-1.42s-.9,1-.91,1.42Z"/><path class="cls-1" d="M256,24.27c0-.91,0-1.5,0-1.91h1.09c0,.11,0,.36,0,1a1.47,1.47,0,0,1,1.49-1.05v1.27c-.94,0-1.46.38-1.46,1.44v3H256Z"/><path class="cls-1" d="M265,24.61h-2.42V27h2.71l-.15,1h-3.7V20.56h3.68v1h-2.54v2H265Z"/><path class="cls-1" d="M266,24.12c0-1.17,0-1.48,0-1.76h1.1a3.53,3.53,0,0,1,0,.64,1.3,1.3,0,0,1,1.28-.74c.88,0,1.46.54,1.46,1.72v4h-1.15V24.23c0-.61-.15-1-.71-1s-.86.35-.86,1.32V28H266Z"/><path class="cls-1" d="M274.93,27.59c0,1.57-.43,2.57-2.11,2.57s-1.89-.95-1.93-1.62H272c0,.22.12.68.82.68s.95-.59.95-1.63v-.35a1.22,1.22,0,0,1-1.24.74c-1.19,0-1.72-1-1.72-2.73,0-2,.72-3,1.84-3,.75,0,1,.36,1.12.65,0-.2,0-.42,0-.55H275c0,.33,0,.9,0,1.68Zm-2-.58c.74,0,.91-.71.91-2s-.1-1.82-.86-1.82-1,.64-1,2S272.34,27,272.92,27Z"/><path class="cls-1" d="M276.15,22.36h1.15V28h-1.15Zm0-.91V20.19h1.15v1.26Z"/><path class="cls-1" d="M278.52,24.12c0-1.17,0-1.48,0-1.76h1.1a5.14,5.14,0,0,1,0,.64,1.32,1.32,0,0,1,1.29-.74c.88,0,1.45.54,1.45,1.72v4h-1.15V24.23c0-.61-.15-1-.71-1s-.86.35-.86,1.32V28h-1.14Z"/><path class="cls-1" d="M284.47,25.46c0,.85.12,1.71.9,1.71a.84.84,0,0,0,.85-.84h1.1a1.88,1.88,0,0,1-2,1.79c-1.77,0-2-1.54-2-3,0-1.79.66-2.9,2.06-2.9,1.6,0,2,1.23,2,2.68,0,.17,0,.41,0,.52Zm1.76-.83c0-.7-.11-1.42-.85-1.42s-.89,1-.9,1.42Z"/><path class="cls-1" d="M289.25,25.46c0,.85.12,1.71.91,1.71a.84.84,0,0,0,.84-.84h1.1a1.87,1.87,0,0,1-2,1.79c-1.77,0-2-1.54-2-3,0-1.79.66-2.9,2.06-2.9,1.59,0,2,1.23,2,2.68a3.84,3.84,0,0,1,0,.52Zm1.76-.83c0-.7-.11-1.42-.84-1.42s-.89,1-.91,1.42Z"/><path class="cls-1" d="M293.07,24.27c0-.91,0-1.5,0-1.91h1.09c0,.11,0,.36,0,1a1.47,1.47,0,0,1,1.49-1.05v1.27c-.94,0-1.46.38-1.46,1.44v3h-1.14Z"/><path class="cls-1" d="M296.39,22.36h1.14V28h-1.14Zm0-.91V20.19h1.15v1.26Z"/><path class="cls-1" d="M298.76,24.12c0-1.17,0-1.48,0-1.76h1.1a5.14,5.14,0,0,1,0,.64,1.31,1.31,0,0,1,1.29-.74c.88,0,1.45.54,1.45,1.72v4h-1.15V24.23c0-.61-.15-1-.71-1s-.86.35-.86,1.32V28h-1.14Z"/><path class="cls-1" d="M307.64,27.59c0,1.57-.42,2.57-2.11,2.57s-1.89-.95-1.92-1.62h1.14c0,.22.12.68.83.68s.94-.59.94-1.63v-.35a1.22,1.22,0,0,1-1.24.74c-1.19,0-1.72-1-1.72-2.73,0-2,.72-3,1.84-3,.75,0,1,.36,1.12.65,0-.2,0-.42.05-.55h1.1c0,.33,0,.9,0,1.68Zm-2-.58c.74,0,.91-.71.91-2s-.09-1.82-.85-1.82-1,.64-1,2S305.05,27,305.63,27Z"/><rect class="cls-2" x="191.33" y="1.42" width="0.72" height="32.81"/><path class="cls-1" d="M71.25,4.06l-2.06-.59V2h8c5.23,0,7.16,1.67,7.16,5.62,0,3.7-2.11,5.61-6.24,5.61H74.89v5.92l2.08.6v1.38H69.14V19.73l2.11-.6ZM74.89,4v7.39l3.82-.29c1-.44,1.93-1,1.93-3.39C80.64,5.9,80.56,4,77.06,4Z"/><path class="cls-1" d="M114.22,13h-2.6v6.17l2.08.6v1.38h-7.83V19.73l2.11-.6V4.06l-2.09-.59V2h8.39c5,0,6.78,1.77,6.78,5.15a4.64,4.64,0,0,1-3.38,4.92L121.21,19l2.29.76v1.38h-5.33Zm-2.6-9V11.3l3.87-.26c1.23-.61,1.82-1.59,1.82-3.59S116.63,4,114.45,4Z"/><path class="cls-1" d="M125.06,19.73l2.08-.58V4.06l-2-.59V2h9.24c5.23,0,8.28,3.16,8.28,9.36,0,7-3.16,9.77-8.68,9.77h-8.87ZM130.81,4V19.13h2.74c1.88,0,5.12-.31,5.12-7.21,0-5.44-1-7.91-5.12-7.91Z"/><path class="cls-1" d="M77.23,31.07c0,2.32-1.34,3.18-3.55,3.18s-3.54-1.3-3.54-3.18V26.41l-1-.31v-.88h4.07v.88l-1,.31v4.66c0,1.2.46,1.86,1.77,1.86.64,0,1.73-.2,1.73-1.92v-4.6l-1-.31v-.88h3.5v.88l-1,.31Z"/><path class="cls-1" d="M84.26,28.67V33l1,.3v.87H81.81v-.87l1-.3V26.88l-.43-.54-.6-.19v-.93H84l4.34,5.46V26.41l-1-.3v-.89h3.43v.89l-1,.3v7.72H88.66Z"/><path class="cls-1" d="M98.25,33l1,.3v.87H95.16v-.87l1-.3V26.4l-1-.3v-.88h4.08v.88l-1,.3Z"/><path class="cls-1" d="M153.3,33l1,.3v.87h-4.09v-.87l1-.3V26.4l-1-.3v-.88h4.09v.88l-1,.3Z"/><path class="cls-1" d="M108.6,34.12h-1.92l-2.83-7.71-1-.31v-.88h4.31v.88l-1,.31L108,31.89l1.91-5.48-1-.31v-.88h3.5v.88l-1,.31Z"/><path class="cls-1" d="M116.69,26.41l-1-.3v-.89h7l.07,2.75h-1.11l-.54-1.57h-2.31v2.5h2.31v1.26h-2.31V33h2.37l.71-1.56H123l-.16,2.71h-7.1v-.87l1-.25Z"/><path class="cls-1" d="M131.31,30.49h-.76V33l1,.3v.87h-4.09v-.87l1-.3V26.41l-1-.3v-.89h4.06c2.49,0,3.26,1,3.26,2.46A2.13,2.13,0,0,1,133.34,30l1.43,2.9,1.25.39v.82h-3Zm-.76-4.08v3.11L132,29.4a1.87,1.87,0,0,0,.69-1.55c0-.89-.23-1.44-1.15-1.44Z"/><path class="cls-1" d="M139.64,31.35h1.24l.26,1.25a3.56,3.56,0,0,0,1.88.52h.29a1.34,1.34,0,0,0,.55-1.07c0-2.08-4.25-1.16-4.25-4.2,0-1.4,1.27-2.73,3.39-2.73a5.58,5.58,0,0,1,2.41.61v2.35h-1.16l-.42-1.49a4.12,4.12,0,0,0-1.45-.29h-.24a1.26,1.26,0,0,0-.59,1.05c0,1.78,4.22,1.14,4.22,4.12,0,1.61-1.45,2.77-3.41,2.77a5.07,5.07,0,0,1-2.71-.81Z"/><path class="cls-1" d="M161.36,26.42h-1.15L159.68,28h-1.12V25.22h7.75V28h-1.1l-.51-1.59h-1.25V33l1,.3v.87h-4.09v-.87l1-.3Z"/><path class="cls-1" d="M173.29,30.69,171,26.41l-1-.31v-.88h4.3v.88l-1,.31,1.47,2.9,1.48-2.9-1-.31v-.88h3.51v.88l-1,.31-2.35,4.26V33l1,.3v.87h-4.09v-.87l1-.3Z"/><polygon class="cls-1" points="177.05 15.56 175.7 19.13 169.71 19.13 169.71 12.25 173.1 12.25 173.54 14.18 175.05 14.18 175.05 8.38 173.54 8.38 173.1 10.24 169.71 10.24 169.71 4.01 175.44 4.01 176.53 7.71 178.59 7.71 178.47 1.98 163.99 1.98 163.99 3.46 166.04 4.06 166.04 19.16 163.96 19.73 163.96 21.11 178.75 21.11 179.09 15.56 177.05 15.56"/><path class="cls-1" d="M102.17,14.53c0,4.85-2.31,6.86-7.06,6.86-4.37,0-7.53-1.74-7.53-6.35v-11l-2.09-.59V2H93.3V3.47l-2.08.59V15c0,2.75,1.27,4,4.32,4,2.1,0,4-1.24,4-4.23V4.06l-2-.59V2h6.73V3.47l-2.08.59Z"/><path class="cls-1" d="M160.27,14.53c0,4.85-2.32,6.86-7.07,6.86-4.37,0-7.53-1.74-7.53-6.35v-11l-2.08-.59V2h7.8V3.47l-2.08.59V15c0,2.75,1.28,4,4.32,4,2.1,0,4-1.24,4-4.23V4.06l-2-.59V2h6.74V3.47l-2.08.59Z"/><path class="cls-3" d="M32.33,34.13l4.12-9.67h6.82c9.88,0,13.62-4.05,16.21-10.14,1-2.25,2.57-6,.45-9.23s-6.59-3.56-9.77-3.56H13.9l-5.12,12h6.56l-3.65,8.58H5.12L0,34.13Z"/><path class="cls-2" d="M58.07,6.32c-1.15-1.75-3.67-2.56-7.91-2.56H15.37l-3.22,7.55h6.57l-5.56,13H6.59L3.37,31.91H30.86l3.22-7.56H27.41l.9-2.12h15c9.63,0,12.19-4.15,14.16-8.78,1.07-2.49,2-5.1.64-7.13M33,11.31H44c1.52,0,1.3.76,1.1,1.23a3.69,3.69,0,0,1-3.52,2.14h-10Z"/><path d="M50.16,4.92h-34L13.9,10.15h6.57L13.93,25.5H7.36L5.12,30.75h25l2.23-5.25H25.66l1.89-4.43H43.27c9,0,11.29-3.81,13.1-8.07s2.8-8.08-6.21-8.08M41.53,15.84H29.78l2.42-5.69H44c2.08,0,2.92,1.07,2.16,2.85a4.8,4.8,0,0,1-4.58,2.84"/><path class="cls-2" d="M181.14,34.09a1.91,1.91,0,1,1,1.91-1.91A1.91,1.91,0,0,1,181.14,34.09Zm0-3.42a1.52,1.52,0,1,0,1.51,1.51A1.51,1.51,0,0,0,181.14,30.67Z"/><path class="cls-2" d="M180.9,32.36v.71h-.38V31.3h.78c.39,0,.59.21.59.48a.43.43,0,0,1-.25.42c.08,0,.22.13.22.44v.09a1.72,1.72,0,0,0,0,.34h-.36a1.28,1.28,0,0,1,0-.4v0c0-.19,0-.28-.33-.28Zm0-.31h.32c.21,0,.29-.08.29-.22s-.1-.23-.28-.23h-.33Z"/></svg>