<svg id="Layer_1" data-name="Layer 1" xmlns="http://www.w3.org/2000/svg" viewBox="0 0 340.4 36.24"><defs><style>.cls-1{fill:#231f20;}.cls-2{fill:#9d9795;}.cls-3{fill:#cfb991;}</style></defs><path class="cls-1" d="M207.34,12h-2.42v2.4h2.7l-.14,1h-3.71V7.89h3.69v1h-2.54v2h2.42Z"/><path class="cls-1" d="M208.4,15.35V7.53h1.15v7.82Z"/><path class="cls-1" d="M210.77,11.39c0-1.08,0-1.44,0-1.7h1.09a5.66,5.66,0,0,1,0,.63,1.33,1.33,0,0,1,1.26-.72,1.1,1.1,0,0,1,1.15.79,1.48,1.48,0,0,1,1.39-.79c.77,0,1.4.38,1.4,1.68v4.07H216v-3.9c0-.49-.15-.88-.67-.88s-.79.49-.79,1.2v3.58h-1.13V11.48c0-.59-.19-.89-.66-.89s-.81.45-.81,1.24v3.52h-1.13Z"/><path class="cls-1" d="M222.17,12.47c0,2-.73,3-2.08,3s-2.06-.93-2.06-3,.83-2.89,2.11-2.89S222.17,10.57,222.17,12.47Zm-3,0c0,1.32.26,2,.92,2s.9-.68.9-2-.26-1.94-.9-1.94S219.19,11.17,219.19,12.49Z"/><path class="cls-1" d="M223.11,11.61c0-.91,0-1.51,0-1.92h1.09c0,.11,0,.37,0,1a1.46,1.46,0,0,1,1.49-1v1.26c-.94,0-1.45.39-1.45,1.44v3h-1.15Z"/><path class="cls-1" d="M227.31,12.8c0,.84.13,1.7.91,1.7a.84.84,0,0,0,.84-.83h1.1a1.88,1.88,0,0,1-2,1.79c-1.77,0-2-1.54-2-3,0-1.79.66-2.9,2.06-2.9,1.59,0,2,1.23,2,2.68,0,.16,0,.41,0,.52Zm1.76-.84c0-.69-.11-1.42-.84-1.42s-.89,1-.91,1.42Z"/><path class="cls-1" d="M233.27,7.89H237v1h-2.55V11h2.4v1h-2.4v3.32h-1.15Z"/><path class="cls-1" d="M241.13,14.19c0,.31,0,.93,0,1.16h-1a4.18,4.18,0,0,1-.06-.56,1.33,1.33,0,0,1-1.29.66,1.5,1.5,0,0,1-1.5-1.66c0-1.13.77-1.85,2.22-1.85a3.79,3.79,0,0,1,.51,0v-.67c0-.36-.07-.8-.7-.8s-.7.43-.73.8h-1.08a1.61,1.61,0,0,1,1.86-1.69c1.17,0,1.76.55,1.76,1.61ZM240,12.8a2.08,2.08,0,0,0-.47,0c-.83,0-1.15.4-1.15.92a.73.73,0,0,0,.73.82c.71,0,.89-.53.89-1.48Z"/><path class="cls-1" d="M242.37,11.39c0-1.08,0-1.44,0-1.7h1.09a5.66,5.66,0,0,1,0,.63,1.34,1.34,0,0,1,1.26-.72,1.09,1.09,0,0,1,1.15.79,1.48,1.48,0,0,1,1.39-.79c.77,0,1.41.38,1.41,1.68v4.07h-1.13v-3.9c0-.49-.15-.88-.67-.88s-.79.49-.79,1.2v3.58H245V11.48c0-.59-.19-.89-.66-.89s-.81.45-.81,1.24v3.52h-1.13Z"/><path class="cls-1" d="M249.9,9.69H251v5.66H249.9Zm0-.91V7.53h1.14V8.78Z"/><path class="cls-1" d="M252.26,15.35V7.53h1.14v7.82Z"/><path class="cls-1" d="M255.32,9.69c.48,2,.9,3.6,1,4.26h0c.13-.76.55-2.51,1-4.26h1.15l-1.64,5.92c-.47,1.73-1,1.87-1.82,1.87a2.52,2.52,0,0,1-.48,0v-1l.4,0c.53,0,.69-.29.87-1l-1.68-5.75Z"/><path class="cls-1" d="M262,13.3c.07.67.36,1.25,1.08,1.25s1-.42,1-1.08-.31-1.05-1.27-1.52c-1.25-.58-1.75-1.11-1.75-2.21a2,2,0,0,1,4.06.07H264c0-.39-.15-1.11-.91-1.11a.83.83,0,0,0-.86.94c0,.59.27.88,1.17,1.3,1.32.61,1.88,1.22,1.88,2.43a2,2,0,0,1-2.21,2.1,2,2,0,0,1-2.2-2.17Z"/><path class="cls-1" d="M269.87,13.5A1.83,1.83,0,0,1,268,15.45c-1.58,0-2-1.3-2-3s.5-2.88,2-2.88a1.77,1.77,0,0,1,1.86,1.88h-1.15c0-.22-.06-.94-.72-.94s-.88.73-.88,2,.23,2,.86,2,.75-.68.78-1Z"/><path class="cls-1" d="M271.86,7.53v2.76a1.33,1.33,0,0,1,1.3-.69c.9,0,1.42.57,1.42,1.74v4h-1.14V11.58c0-.61-.14-1-.74-1s-.84.51-.84,1.35v3.43h-1.13V7.53Z"/><path class="cls-1" d="M279.65,12.47c0,2-.73,3-2.08,3s-2.06-.93-2.06-3,.83-2.89,2.12-2.89S279.65,10.57,279.65,12.47Zm-3,0c0,1.32.26,2,.92,2s.91-.68.91-2-.27-1.94-.91-1.94S276.67,11.17,276.67,12.49Z"/><path class="cls-1" d="M284.5,12.47c0,2-.72,3-2.08,3s-2.06-.93-2.06-3,.83-2.89,2.12-2.89S284.5,10.57,284.5,12.47Zm-3,0c0,1.32.26,2,.92,2s.91-.68.91-2-.27-1.94-.91-1.94S281.52,11.17,281.52,12.49Z"/><path class="cls-1" d="M285.45,15.35V7.53h1.14v7.82Z"/><path class="cls-1" d="M293.74,12.47c0,2-.72,3-2.08,3s-2.05-.93-2.05-3,.82-2.89,2.11-2.89S293.74,10.57,293.74,12.47Zm-3,0c0,1.32.26,2,.92,2s.91-.68.91-2-.27-1.94-.91-1.94S290.76,11.17,290.76,12.49Z"/><path class="cls-1" d="M294.84,15.35V10.64h-.68v-1h.68V9.07c0-.92.4-1.61,1.49-1.61a1.8,1.8,0,0,1,.5.06v1a1.69,1.69,0,0,0-.33,0c-.39,0-.52.23-.52.68v.56h.84v1H296v4.71Z"/><path class="cls-1" d="M303,12h-2.41v2.4h2.7l-.14,1h-3.71V7.89h3.69v1h-2.54v2H303Z"/><path class="cls-1" d="M304.09,15.35V7.53h1.15v7.82Z"/><path class="cls-1" d="M307.33,12.8c0,.84.12,1.7.9,1.7a.84.84,0,0,0,.84-.83h1.11a1.9,1.9,0,0,1-2,1.79c-1.77,0-2-1.54-2-3,0-1.79.66-2.9,2.06-2.9,1.59,0,2,1.23,2,2.68,0,.16,0,.41,0,.52Zm1.76-.84c0-.69-.11-1.42-.85-1.42s-.89,1-.9,1.42Z"/><path class="cls-1" d="M314.87,13.5A1.83,1.83,0,0,1,313,15.45c-1.58,0-2-1.3-2-3s.5-2.88,2-2.88a1.76,1.76,0,0,1,1.86,1.88h-1.15c0-.22-.06-.94-.72-.94s-.88.73-.88,2,.23,2,.86,2,.75-.68.78-1Z"/><path class="cls-1" d="M315.32,9.69h.76V8.25h1.13V9.69h.92v1h-.92v3.3c0,.35.07.55.49.55a1.78,1.78,0,0,0,.34,0v.85a2,2,0,0,1-.75.11c-.82,0-1.21-.31-1.21-1.29v-3.5h-.76Z"/><path class="cls-1" d="M318.84,11.61c0-.91,0-1.51,0-1.92h1.09c0,.11,0,.37,0,1a1.46,1.46,0,0,1,1.49-1v1.26c-.94,0-1.45.39-1.45,1.44v3h-1.15Z"/><path class="cls-1" d="M322.16,9.69h1.15v5.66h-1.15Zm0-.91V7.53h1.14V8.78Z"/><path class="cls-1" d="M328.17,13.5a1.84,1.84,0,0,1-1.93,1.95c-1.57,0-2-1.3-2-3s.51-2.88,2.05-2.88a1.77,1.77,0,0,1,1.86,1.88H327c0-.22-.06-.94-.72-.94s-.88.73-.88,2,.23,2,.86,2,.75-.68.78-1Z"/><path class="cls-1" d="M332.64,14.19c0,.31,0,.93,0,1.16h-1a3,3,0,0,1-.06-.56,1.35,1.35,0,0,1-1.3.66,1.49,1.49,0,0,1-1.49-1.66c0-1.13.77-1.85,2.22-1.85a3.63,3.63,0,0,1,.5,0v-.67c0-.36-.06-.8-.69-.8s-.7.43-.74.8H329c0-.83.4-1.69,1.86-1.69,1.16,0,1.76.55,1.76,1.61Zm-1.09-1.39a2.23,2.23,0,0,0-.48,0c-.82,0-1.14.4-1.14.92a.73.73,0,0,0,.73.82c.71,0,.89-.53.89-1.48Z"/><path class="cls-1" d="M333.87,15.35V7.53H335v7.82Z"/><path class="cls-1" d="M207.26,26.19c0,.31,0,.93,0,1.16h-1a4.31,4.31,0,0,1-.05-.56,1.36,1.36,0,0,1-1.3.66,1.5,1.5,0,0,1-1.5-1.66c0-1.13.77-1.85,2.22-1.85a3.79,3.79,0,0,1,.51,0v-.67c0-.36-.07-.8-.69-.8s-.71.43-.74.8h-1.08a1.61,1.61,0,0,1,1.86-1.69c1.17,0,1.76.55,1.76,1.61Zm-1.09-1.39a2.08,2.08,0,0,0-.47,0c-.83,0-1.15.4-1.15.92a.73.73,0,0,0,.73.82c.72,0,.89-.53.89-1.48Z"/><path class="cls-1" d="M208.49,23.45c0-1.16,0-1.47,0-1.76h1.1a5.36,5.36,0,0,1,0,.64,1.33,1.33,0,0,1,1.29-.73c.88,0,1.45.53,1.45,1.71v4h-1.14V23.56c0-.6-.15-1-.72-1s-.85.36-.85,1.33v3.45h-1.15Z"/><path class="cls-1" d="M217.37,19.53v6.29c0,.63,0,1.2,0,1.53h-1.1c0-.14,0-.46,0-.66a1.2,1.2,0,0,1-1.29.76c-1.18,0-1.66-1.05-1.66-3,0-1.75.59-2.87,1.87-2.87.65,0,.94.25,1.06.49V19.53Zm-2,6.94c.75,0,.93-.6.93-2s-.15-1.87-.86-1.87-1,.48-1,1.92S214.74,26.47,215.33,26.47Z"/><path class="cls-1" d="M224.92,25.21a2.19,2.19,0,0,1-2.17,2.26c-2.08,0-2.29-1.95-2.29-3.87,0-2.33.66-3.82,2.36-3.82A2,2,0,0,1,224.9,22h-1.15c0-.25,0-1.25-.94-1.25s-1.15,1.23-1.15,2.85c0,1.46.15,2.87,1.11,2.87s1-1,1-1.28Z"/><path class="cls-1" d="M229.73,24.47c0,2-.72,3-2.08,3s-2.05-.93-2.05-3,.82-2.89,2.11-2.89S229.73,22.57,229.73,24.47Zm-3,0c0,1.32.27,2,.93,2s.9-.68.9-2-.27-1.94-.9-1.94S226.75,23.17,226.75,24.49Z"/><path class="cls-1" d="M230.69,23.39c0-1.08,0-1.44,0-1.7h1.09a5.66,5.66,0,0,1,0,.63,1.33,1.33,0,0,1,1.26-.72,1.1,1.1,0,0,1,1.15.79,1.48,1.48,0,0,1,1.39-.79c.77,0,1.4.38,1.4,1.68v4.07h-1.12v-3.9c0-.49-.15-.88-.67-.88s-.79.49-.79,1.2v3.58h-1.13V23.48c0-.59-.19-.89-.66-.89s-.81.45-.81,1.24v3.52h-1.13Z"/><path class="cls-1" d="M238.21,29.41V23.33c0-.77,0-1.28,0-1.64h1.1a5.5,5.5,0,0,1,0,.68,1.26,1.26,0,0,1,1.29-.77c1.06,0,1.65.92,1.65,2.83,0,2.15-.72,3-1.81,3a1.13,1.13,0,0,1-1.11-.6v2.55Zm2-6.84c-.73,0-.91.7-.91,1.89s.09,2,.88,2c.63,0,.94-.7.94-2S240.83,22.57,240.22,22.57Z"/><path class="cls-1" d="M247.06,25.72c0,.79,0,1.34,0,1.63H246a5.76,5.76,0,0,1,0-.66,1.26,1.26,0,0,1-1.29.76c-.75,0-1.41-.35-1.41-1.7V21.69h1.14v3.8c0,.62.15,1,.67,1s.87-.31.87-1.32V21.69h1.15Z"/><path class="cls-1" d="M247.76,21.69h.76V20.25h1.13v1.44h.92v.95h-.92v3.3c0,.35.07.55.49.55a1.78,1.78,0,0,0,.34,0v.85a2,2,0,0,1-.75.11c-.82,0-1.21-.31-1.21-1.29v-3.5h-.76Z"/><path class="cls-1" d="M252.16,24.8c0,.84.12,1.7.9,1.7a.84.84,0,0,0,.85-.83H255a1.88,1.88,0,0,1-2,1.79c-1.77,0-2-1.54-2-3,0-1.79.66-2.9,2-2.9,1.6,0,2,1.23,2,2.68,0,.16,0,.41,0,.52Zm1.76-.84c0-.69-.11-1.42-.85-1.42s-.89,1-.9,1.42Z"/><path class="cls-1" d="M256,23.61c0-.91,0-1.51,0-1.92h1.09c0,.11,0,.37,0,1a1.46,1.46,0,0,1,1.48-1v1.26c-.93,0-1.45.39-1.45,1.44v3H256Z"/><path class="cls-1" d="M265,24h-2.42v2.4h2.71l-.15,1h-3.71V19.89h3.69v1h-2.54v2H265Z"/><path class="cls-1" d="M266,23.45c0-1.16,0-1.47,0-1.76h1.1a5,5,0,0,1,0,.64,1.31,1.31,0,0,1,1.28-.73c.88,0,1.45.53,1.45,1.71v4h-1.14V23.56c0-.6-.15-1-.71-1s-.86.36-.86,1.33v3.45H266Z"/><path class="cls-1" d="M274.93,26.92c0,1.57-.43,2.57-2.11,2.57s-1.89-.94-1.93-1.61H272c0,.22.12.68.82.68s.95-.59.95-1.64v-.34a1.22,1.22,0,0,1-1.24.74c-1.19,0-1.72-1-1.72-2.73,0-2,.72-3,1.84-3,.75,0,1,.36,1.12.64,0-.19,0-.41,0-.55H275c0,.33,0,.91,0,1.69Zm-2-.57c.74,0,.91-.72.91-2s-.1-1.82-.86-1.82-1,.64-1,2S272.34,26.35,272.92,26.35Z"/><path class="cls-1" d="M276.15,21.69h1.15v5.66h-1.15Zm0-.91V19.53h1.15v1.25Z"/><path class="cls-1" d="M278.52,23.45c0-1.16,0-1.47,0-1.76h1.1a5.36,5.36,0,0,1,0,.64,1.33,1.33,0,0,1,1.29-.73c.88,0,1.45.53,1.45,1.71v4h-1.15V23.56c0-.6-.15-1-.71-1s-.86.36-.86,1.33v3.45h-1.14Z"/><path class="cls-1" d="M284.47,24.8c0,.84.12,1.7.9,1.7a.85.85,0,0,0,.85-.83h1.1a1.89,1.89,0,0,1-2,1.79c-1.77,0-2-1.54-2-3,0-1.79.66-2.9,2.06-2.9,1.6,0,2,1.23,2,2.68,0,.16,0,.41,0,.52Zm1.76-.84c0-.69-.11-1.42-.85-1.42s-.89,1-.9,1.42Z"/><path class="cls-1" d="M289.25,24.8c0,.84.12,1.7.9,1.7a.84.84,0,0,0,.85-.83h1.1a1.88,1.88,0,0,1-2,1.79c-1.77,0-2-1.54-2-3,0-1.79.66-2.9,2.06-2.9,1.59,0,2,1.23,2,2.68a3.94,3.94,0,0,1,0,.52ZM291,24c0-.69-.11-1.42-.84-1.42s-.9,1-.91,1.42Z"/><path class="cls-1" d="M293.07,23.61c0-.91,0-1.51,0-1.92h1.09c0,.11,0,.37,0,1a1.46,1.46,0,0,1,1.49-1v1.26c-.94,0-1.46.39-1.46,1.44v3h-1.14Z"/><path class="cls-1" d="M296.39,21.69h1.14v5.66h-1.14Zm0-.91V19.53h1.15v1.25Z"/><path class="cls-1" d="M298.76,23.45c0-1.16,0-1.47,0-1.76h1.11a5.36,5.36,0,0,1,0,.64,1.32,1.32,0,0,1,1.29-.73c.88,0,1.45.53,1.45,1.71v4h-1.15V23.56c0-.6-.15-1-.71-1s-.86.36-.86,1.33v3.45h-1.14Z"/><path class="cls-1" d="M307.64,26.92c0,1.57-.42,2.57-2.11,2.57s-1.89-.94-1.92-1.61h1.14c0,.22.12.68.83.68s.94-.59.94-1.64v-.34a1.22,1.22,0,0,1-1.24.74c-1.19,0-1.72-1-1.72-2.73,0-2,.72-3,1.84-3,.75,0,1,.36,1.12.64,0-.19,0-.41.05-.55h1.1c0,.33,0,.91,0,1.69Zm-2-.57c.74,0,.91-.72.91-2s-.1-1.82-.85-1.82-1,.64-1,2S305.05,26.35,305.63,26.35Z"/><rect class="cls-2" x="191.33" y="1.42" width="0.72" height="32.81"/><path d="M71.25,4.06l-2.06-.59V2h8c5.23,0,7.16,1.67,7.16,5.62,0,3.7-2.11,5.61-6.24,5.61H74.89v5.92l2.08.6v1.38H69.14V19.73l2.11-.6ZM74.89,4v7.39l3.82-.29c1-.44,1.93-1,1.93-3.39C80.64,5.9,80.56,4,77.06,4Z"/><path d="M114.22,13h-2.6v6.17l2.08.6v1.38h-7.83V19.73l2.11-.6V4.06l-2.09-.59V2h8.39c5,0,6.78,1.77,6.78,5.15a4.64,4.64,0,0,1-3.38,4.92L121.21,19l2.29.76v1.38h-5.33Zm-2.6-9V11.3l3.87-.26c1.23-.61,1.82-1.59,1.82-3.59S116.63,4,114.45,4Z"/><path d="M125.06,19.73l2.08-.58V4.06l-2-.59V2h9.24c5.23,0,8.28,3.16,8.28,9.36,0,7-3.16,9.77-8.68,9.77h-8.87ZM130.81,4V19.13h2.74c1.88,0,5.12-.31,5.12-7.21,0-5.44-1-7.91-5.12-7.91Z"/><path d="M77.23,31.07c0,2.32-1.34,3.18-3.55,3.18s-3.54-1.3-3.54-3.18V26.41l-1-.31v-.88h4.07v.88l-1,.31v4.66c0,1.2.46,1.86,1.77,1.86.64,0,1.73-.2,1.73-1.92v-4.6l-1-.31v-.88h3.5v.88l-1,.31Z"/><path d="M84.26,28.67V33l1,.3v.87H81.81v-.87l1-.3V26.88l-.43-.54-.6-.19v-.93H84l4.34,5.46V26.41l-1-.3v-.89h3.43v.89l-1,.3v7.72H88.66Z"/><path d="M98.25,33l1,.3v.87H95.16v-.87l1-.3V26.4l-1-.3v-.88h4.08v.88l-1,.3Z"/><path d="M153.3,33l1,.3v.87h-4.09v-.87l1-.3V26.4l-1-.3v-.88h4.09v.88l-1,.3Z"/><path d="M108.6,34.12h-1.92l-2.83-7.71-1-.31v-.88h4.31v.88l-1,.31L108,31.89l1.91-5.48-1-.31v-.88h3.5v.88l-1,.31Z"/><path d="M116.69,26.41l-1-.3v-.89h7l.07,2.75h-1.11l-.54-1.57h-2.31v2.5h2.31v1.26h-2.31V33h2.37l.71-1.56H123l-.16,2.71h-7.1v-.87l1-.25Z"/><path d="M131.31,30.49h-.76V33l1,.3v.87h-4.09v-.87l1-.3V26.41l-1-.3v-.89h4.06c2.49,0,3.26,1,3.26,2.46A2.13,2.13,0,0,1,133.34,30l1.43,2.9,1.25.39v.82h-3Zm-.76-4.08v3.11L132,29.4a1.87,1.87,0,0,0,.69-1.55c0-.89-.23-1.44-1.15-1.44Z"/><path d="M139.64,31.35h1.24l.26,1.25a3.56,3.56,0,0,0,1.88.52h.29a1.34,1.34,0,0,0,.55-1.07c0-2.08-4.25-1.16-4.25-4.2,0-1.4,1.27-2.73,3.39-2.73a5.58,5.58,0,0,1,2.41.61v2.35h-1.16l-.42-1.49a4.12,4.12,0,0,0-1.45-.29h-.24a1.26,1.26,0,0,0-.59,1.05c0,1.78,4.22,1.14,4.22,4.12,0,1.61-1.45,2.77-3.41,2.77a5.07,5.07,0,0,1-2.71-.81Z"/><path d="M161.36,26.42h-1.15L159.68,28h-1.12V25.22h7.75V28h-1.1l-.51-1.59h-1.25V33l1,.3v.87h-4.09v-.87l1-.3Z"/><path d="M173.29,30.69,171,26.41l-1-.31v-.88h4.3v.88l-1,.31,1.47,2.9,1.48-2.9-1-.31v-.88h3.51v.88l-1,.31-2.35,4.26V33l1,.3v.87h-4.09v-.87l1-.3Z"/><polygon points="177.05 15.56 175.7 19.13 169.71 19.13 169.71 12.25 173.1 12.25 173.54 14.18 175.05 14.18 175.05 8.38 173.54 8.38 173.1 10.24 169.71 10.24 169.71 4.01 175.44 4.01 176.53 7.71 178.59 7.71 178.47 1.98 163.99 1.98 163.99 3.46 166.04 4.06 166.04 19.16 163.96 19.73 163.96 21.11 178.75 21.11 179.09 15.56 177.05 15.56"/><path d="M102.17,14.53c0,4.85-2.31,6.86-7.06,6.86-4.37,0-7.53-1.74-7.53-6.35v-11l-2.09-.59V2H93.3V3.47l-2.08.59V15c0,2.75,1.27,4,4.32,4,2.1,0,4-1.24,4-4.23V4.06l-2-.59V2h6.73V3.47l-2.08.59Z"/><path d="M160.27,14.53c0,4.85-2.32,6.86-7.07,6.86-4.37,0-7.53-1.74-7.53-6.35v-11l-2.08-.59V2h7.8V3.47l-2.08.59V15c0,2.75,1.28,4,4.32,4,2.1,0,4-1.24,4-4.23V4.06l-2-.59V2h6.74V3.47l-2.08.59Z"/><path d="M32.33,34.13l4.12-9.67h6.82c9.88,0,13.62-4.05,16.21-10.14,1-2.25,2.57-6,.45-9.23s-6.59-3.56-9.77-3.56H13.9l-5.12,12h6.56l-3.65,8.58H5.12L0,34.13Z"/><path class="cls-2" d="M58.07,6.32c-1.15-1.75-3.67-2.56-7.91-2.56H15.37l-3.22,7.55h6.57l-5.56,13H6.59L3.37,31.91H30.86l3.22-7.56H27.41l.9-2.12h15c9.63,0,12.19-4.15,14.16-8.78,1.07-2.49,2-5.1.64-7.13M33,11.31H44c1.52,0,1.3.76,1.1,1.23a3.69,3.69,0,0,1-3.52,2.14h-10Z"/><path class="cls-3" d="M50.16,4.92h-34L13.9,10.15h6.57L13.93,25.5H7.36L5.12,30.75h25l2.23-5.25H25.66l1.89-4.43H43.27c9,0,11.29-3.81,13.1-8.07s2.8-8.08-6.21-8.08M41.53,15.84H29.78l2.42-5.69H44c2.08,0,2.92,1.07,2.16,2.85a4.8,4.8,0,0,1-4.58,2.84"/><path class="cls-2" d="M181.14,34.09a1.91,1.91,0,1,1,1.91-1.91A1.91,1.91,0,0,1,181.14,34.09Zm0-3.42a1.52,1.52,0,1,0,1.51,1.51A1.51,1.51,0,0,0,181.14,30.67Z"/><path class="cls-2" d="M180.9,32.36v.71h-.38V31.3h.78c.39,0,.59.21.59.48a.43.43,0,0,1-.25.42c.08,0,.22.13.22.44v.09a1.72,1.72,0,0,0,0,.34h-.36a1.28,1.28,0,0,1,0-.4v0c0-.19,0-.28-.33-.28Zm0-.31h.32c.21,0,.29-.08.29-.22s-.1-.23-.28-.23h-.33Z"/></svg>